<?xml version="1.0" encoding="iso-8859-1"?>
<!-- Generator: Adobe Illustrator 19.0.0, SVG Export Plug-In . SVG Version: 6.00 Build 0)  -->
<svg version="1.1" id="Capa_1" xmlns="http://www.w3.org/2000/svg" xmlns:xlink="http://www.w3.org/1999/xlink" x="0px" y="0px"
	 viewBox="0 0 470.1 470.1" style="enable-background:new 0 0 470.1 470.1;" xml:space="preserve">
<g>
	<path style="fill:#ED664C;" d="M372.528,164.1c14,25.9,8.8,58.1-11.9,79.3c-13.2,13.2-30.5,19.8-47.7,19.8s-34.5-6.6-47.7-19.8
		c-20.7-20.7-25.9-52.9-11.9-79.3l59.6-113L372.528,164.1z"/>
	<path style="fill:#ED664C;" d="M139.728,73.3c7.8,14.5,5.2,32.7-6.7,44.1c-7,7.3-16.5,10.9-26,10.9c-9.6,0-19.3-3.6-26.9-10.9
		c-11.9-11.9-14.5-29.6-6.7-44.1l33.1-63.2L139.728,73.3z"/>
</g>
<path d="M258.128,250.5L258.128,250.5c14.7,14.7,34.1,22.7,54.8,22.7c20.7,0,40.1-8.1,54.8-22.7l0.1-0.1
	c24.2-24.8,29.6-61.4,13.6-91l-59.6-113c-1.7-3.3-5.1-5.3-8.8-5.3s-7.1,2.1-8.8,5.3l-59.6,113c-7.9,14.8-10.7,31.4-8.1,48
	C238.828,223.8,246.428,238.7,258.128,250.5z M262.128,168.7l50.8-96.3l50.8,96.4c11.9,22,7.7,49.1-10.2,67.6
	c-10.9,10.9-25.3,16.8-40.6,16.8c-15.3,0-29.7-6-40.6-16.9l0,0C254.328,218.4,250.228,191.2,262.128,168.7z"/>
<path d="M73.128,124.6c9.1,8.8,21.2,13.7,33.8,13.7c12.7,0,24.4-4.9,33.1-13.8c14.9-14.4,18.4-37.4,8.5-55.8l-33.2-63.3
	c-1.7-3.3-5.1-5.4-8.9-5.4s-7.1,2.1-8.9,5.4l-33,63.2c-9.9,18.5-6.5,40.9,8.5,55.9L73.128,124.6z M82.228,78l24.3-46.4l24.4,46.5
	c5.7,10.7,3.7,23.9-4.8,32.1c-0.1,0.1-0.2,0.2-0.3,0.3c-4.9,5-11.6,7.8-18.8,7.8c-7.4,0-14.5-2.8-19.8-8
	C78.428,101.6,76.528,88.6,82.228,78z"/>
<path d="M442.728,443.9c-6.3-4.1-11.6-10.1-17.2-16.5c-12-13.7-25.5-29.1-52.5-29.1c-27.1,0-40.7,15.6-52.7,29.4
	c-10.9,12.6-19.6,22.5-37.6,22.5s-26.6-9.9-37.6-22.5c-12-13.8-25.5-29.4-52.7-29.4c-27.1,0-40.7,15.6-52.7,29.4
	c-10.9,12.6-19.6,22.5-37.6,22.5c-17.9,0-26.5-9.9-37.4-22.4c-7.7-8.9-15.7-18.1-27.7-23.8c-5-2.4-11-0.3-13.3,4.7
	c-2.4,5-0.3,11,4.7,13.3c8.3,4,14.6,11.2,21.3,18.9c12,13.7,25.5,29.2,52.5,29.2c27.1,0,40.7-15.6,52.7-29.4
	c10.9-12.6,19.6-22.5,37.6-22.5s26.6,9.9,37.6,22.5c12,13.8,25.5,29.4,52.7,29.4s40.7-15.6,52.7-29.4c10.9-12.6,19.6-22.5,37.6-22.5
	c17.9,0,26.5,9.8,37.4,22.3c6.3,7.2,12.8,14.6,21.5,20.2c4.6,3,10.8,1.6,13.8-3C448.728,453.1,447.428,446.9,442.728,443.9z"/>
<path d="M442.728,355.8c-6.3-4.1-11.6-10.1-17.2-16.5c-12-13.7-25.5-29.1-52.5-29.1c-27.1,0-40.7,15.6-52.7,29.4
	c-10.9,12.6-19.6,22.5-37.6,22.5s-26.6-9.9-37.6-22.5c-12-13.8-25.5-29.4-52.7-29.4c-27.1,0-40.7,15.6-52.7,29.4
	c-10.9,12.6-19.6,22.5-37.6,22.5c-17.9,0-26.5-9.9-37.4-22.4c-7.7-8.9-15.7-18.1-27.7-23.8c-5-2.4-11-0.3-13.3,4.7
	c-2.4,5-0.3,11,4.7,13.3c8.3,4,14.6,11.2,21.3,18.9c12,13.7,25.5,29.2,52.5,29.2c27.1,0,40.7-15.6,52.7-29.4
	c10.9-12.6,19.6-22.5,37.6-22.5s26.6,9.9,37.6,22.5c12,13.8,25.5,29.4,52.7,29.4s40.7-15.6,52.7-29.4c10.9-12.6,19.6-22.5,37.6-22.5
	c17.9,0,26.5,9.8,37.4,22.3c6.3,7.2,12.8,14.6,21.5,20.2c4.6,3,10.8,1.6,13.8-3C448.728,365,447.428,358.8,442.728,355.8z"/>
<g>
</g>
<g>
</g>
<g>
</g>
<g>
</g>
<g>
</g>
<g>
</g>
<g>
</g>
<g>
</g>
<g>
</g>
<g>
</g>
<g>
</g>
<g>
</g>
<g>
</g>
<g>
</g>
<g>
</g>
</svg>
